<?xml version="1.0" encoding="UTF-8"?>
<svg width="158px" height="46px" viewBox="0 0 158 46" version="1.1" xmlns="http://www.w3.org/2000/svg" xmlns:xlink="http://www.w3.org/1999/xlink">
    <title>Group</title>
    <defs>
        <polygon id="path-1" points="0.109209944 0.00830579227 37.3550762 0.00830579227 37.3550762 43.5492667 0.109209944 43.5492667"></polygon>
        <polygon id="path-3" points="0.1431739 0.00830579227 37.3890402 0.00830579227 37.3890402 43.5492667 0.1431739 43.5492667"></polygon>
    </defs>
    <g id="Menu-Option-1" stroke="none" stroke-width="1" fill="none" fill-rule="evenodd">
        <g id="ComingSoon" transform="translate(-641.000000, -118.000000)">
            <g id="Group" transform="translate(641.000000, 118.000000)">
                <g id="Group-11" transform="translate(0.705882, 0.500000)">
                    <path d="M16.0273731,11.1099175 L10.3401502,25.8960236 L21.3962821,25.8960236 L16.0273731,11.1099175 Z M39.0979457,37.9634418 C39.6364753,39.3323262 40.2176563,40.291533 40.8450803,40.8495924 C41.4686882,41.4110191 42.0500937,41.7032932 42.591766,41.7459445 L42.591766,42.9278363 C41.1503743,42.8721651 39.482257,42.8292892 37.5972911,42.7967395 C35.709407,42.7706997 33.7820142,42.7538637 31.8216227,42.7538637 C30.8233563,42.7538637 29.8381098,42.7605981 28.8762092,42.7706997 C27.9143087,42.7769852 27.0042632,42.7900051 26.1476442,42.7967395 C25.2905762,42.8066167 24.495914,42.8292892 23.7636574,42.855778 C23.0345435,42.885185 22.4075684,42.9116737 21.8887931,42.9278363 L21.8887931,41.7459445 C23.2938189,41.6866816 24.3381039,41.5160761 25.0211992,41.223802 C25.70407,40.9351196 26.0457299,40.3864884 26.0457299,39.5785817 C26.0457299,39.2340036 25.9864669,38.8301625 25.8618801,38.3803028 C25.7337015,37.9302187 25.5563616,37.3950563 25.323126,36.7775094 L21.8032659,27.0747727 L9.87727061,27.0747727 L8.86912701,29.7310548 C8.19254167,31.4844749 7.70676506,32.985354 7.40775654,34.2363859 C7.10919698,35.4905606 6.96126408,36.5543754 6.96126408,37.4410749 C6.96126408,38.30802 7.08944266,39.0173795 7.35208528,39.5653373 C7.60821796,40.1139686 7.97591762,40.5442984 8.44553161,40.8495924 C8.91828832,41.1582536 9.4830822,41.3813876 10.1363215,41.5160761 C10.7900098,41.6507646 11.5123893,41.722823 12.3039088,41.7459445 L12.3039088,42.9278363 C11.5714278,42.9116737 10.8818225,42.885185 10.2382359,42.855778 C9.59128198,42.8292892 8.9643069,42.8066167 8.34698451,42.7967395 C7.72966211,42.7900051 7.11233971,42.7769852 6.49816004,42.7706997 C5.88083764,42.7605981 5.23725098,42.7538637 4.56425733,42.7538637 C3.77610499,42.7538637 2.9650556,42.7706997 2.1376191,42.7967395 C1.30995813,42.8292892 0.597455841,42.8721651 0.000112240436,42.9278363 L0.000112240436,41.7459445 C0.462991799,41.6702945 0.916218679,41.4931791 1.35934392,41.223802 C1.79955091,40.9515067 2.24604337,40.5505839 2.68939309,40.0122788 C3.1293756,39.4737491 3.582378,38.7805522 4.04548204,37.9338104 C4.50499438,37.0861706 4.96787394,36.0457018 5.43097798,34.8141997 L18.5689455,1.06192921 C19.0482122,1.09784615 19.5537431,1.12747763 20.0857627,1.14408921 C20.6146397,1.16339457 21.1495776,1.17686342 21.6883317,1.17686342 C22.2270858,1.17686342 22.758881,1.16339457 23.2909006,1.14408921 C23.8193286,1.12747763 24.3149824,1.09784615 24.7749437,1.06192921 L39.0979457,37.9634418 Z" id="Fill-1" fill="#80142E"></path>
                    <g id="Group-5" transform="translate(42.426885, 0.216175)">
                        <mask id="mask-2" fill="white">
                            <use xlink:href="#path-1"></use>
                        </mask>
                        <g id="Clip-4"></g>
                        <path d="M22.4574032,0.00828334418 C23.7479437,0.00828334418 24.9201828,0.11019766 25.9806304,0.323678969 C27.0381598,0.537160279 28.0067948,0.822475467 28.8833926,1.17737973 C29.7599904,1.5320595 30.5582444,1.94241054 31.2770321,2.40237184 C31.9998605,2.86188419 32.6890168,3.34451806 33.3460723,3.84690626 C33.7663005,4.19507609 34.1503873,4.36568155 34.4983327,4.36568155 C34.9021737,4.36568155 35.2305893,4.08014188 35.480212,3.51534801 C35.7296102,2.9474114 35.9038074,2.05397753 35.9989873,0.845821478 L37.3550762,0.845821478 C37.3191593,1.63374934 37.2830179,2.50091895 37.2565291,3.43992243 C37.2273466,4.38543587 37.2040006,5.44588351 37.1844708,6.63159147 C37.1647165,7.81685048 37.1516966,9.14330795 37.1418194,10.6210655 C37.1317178,12.0920887 37.1254323,13.7635733 37.1254323,15.6254176 L35.7693434,15.6254176 C35.6344303,14.2033313 35.4606822,12.8968526 35.2503436,11.7178791 C35.0370867,10.5321711 34.7317928,9.44568369 34.32436,8.46717156 C33.9205189,7.48192502 33.3983764,6.59859279 32.7514225,5.79427782 C32.1078358,4.99939105 31.2936437,4.26713445 30.3117644,3.61703784 C29.4843279,3.07850823 28.6075056,2.64840288 27.6851137,2.33323174 C26.7591301,2.01469338 25.8068823,1.85396507 24.8283701,1.85396507 C23.3243483,1.85396507 22.0008091,2.14264748 20.8584259,2.72068572 C19.7090838,3.29535675 18.7272045,4.08014188 17.9094207,5.07504111 C17.0920858,6.06657312 16.4121333,7.22556786 15.8738281,8.55561703 C15.3350741,9.87893177 14.901826,11.2844065 14.573186,12.768674 C14.2485866,14.2529416 14.0184937,15.7695343 13.8970496,17.3294519 C13.7724627,18.889145 13.7098325,20.4126967 13.7098325,21.8969642 C13.7098325,23.37764 13.7724627,24.8949063 13.8970496,26.4579666 C14.0184937,28.0142925 14.2485866,29.5380686 14.573186,31.0189689 C14.901826,32.503012 15.3350741,33.9051195 15.8738281,35.2351687 C16.4121333,36.5614017 17.0920858,37.7271308 17.9094207,38.7123774 C18.7272045,39.7075011 19.7057166,40.4886945 20.8418143,41.0667328 C21.9747693,41.6476893 23.3043695,41.9336779 24.8283701,41.9336779 C25.8068823,41.9336779 26.7591301,41.7758678 27.6851137,41.457554 C28.6075056,41.1392401 29.4843279,40.712053 30.3117644,40.1703806 C31.2936437,39.5759553 32.1078358,38.8764729 32.7514225,38.0622808 C33.3983764,37.2545986 33.9205189,36.328615 34.32436,35.2775956 C34.7317928,34.2270251 35.0370867,33.0514187 35.2503436,31.7382056 C35.4606822,30.4310535 35.6344303,28.9667648 35.7693434,27.351176 L37.1254323,27.351176 C37.1254323,29.2949558 37.1317178,31.0319888 37.1418194,32.5622749 C37.1516966,34.092561 37.1647165,35.4746898 37.1844708,36.7061918 C37.2040006,37.9374694 37.2273466,39.0441601 37.2565291,40.025815 C37.2830179,41.0076943 37.3191593,41.9040464 37.3550762,42.7115041 L35.9989873,42.7115041 C35.9038074,41.5002053 35.7428546,40.6168731 35.5228634,40.055222 C35.3030966,39.4971625 34.981191,39.2181328 34.5573711,39.2181328 C34.2487099,39.2181328 33.8450933,39.3822283 33.3460723,39.7075011 C32.6135913,40.2296436 31.871682,40.7187874 31.1194466,41.1818914 C30.3710273,41.6476893 29.5633452,42.0486121 28.6930328,42.3965574 C27.8294549,42.7411356 26.8803498,43.023757 25.8495336,43.2305039 C24.8182685,43.4439852 23.6689264,43.5492667 22.4017319,43.5492667 C19.0488856,43.5492667 16.0082922,43.0664084 13.2765845,42.107875 C10.5410605,41.1421583 8.19972505,39.7501524 6.24292529,37.9179396 C4.28926826,36.0888694 2.77851199,33.8494482 1.71155441,31.1895744 C0.64100513,28.5330678 0.109209944,25.5122287 0.109209944,22.1236899 C0.109209944,18.813495 0.657616715,15.802533 1.75398129,13.0869879 C2.85079483,10.3750345 4.38444815,8.04986162 6.36122671,6.11595891 C8.33463806,4.17532177 10.6858507,2.67803436 13.4175584,1.61085229 C16.1528579,0.540527492 19.1674115,0.00828334418 22.4574032,0.00828334418" id="Fill-3" fill="#80142E" mask="url(#mask-2)"></path>
                    </g>
                    <path d="M116.312339,1.06199656 C116.233547,2.04387589 116.174508,3.02575523 116.125122,4.0071856 C116.075961,4.98906493 116.036452,5.90853858 116.010413,6.77885093 C115.980781,7.64557157 115.954517,8.44360107 115.93813,9.17585768 C115.918151,9.90137986 115.908498,10.5121923 115.908498,10.991459 C115.908498,11.8191199 115.921743,12.6135578 115.951374,13.3756703 C115.980781,14.1339667 116.023433,14.7676762 116.079328,15.2669217 L114.723015,15.2669217 C114.204015,12.8203046 113.54449,10.7779777 112.746012,9.13320631 C111.945289,7.48147605 111.064875,6.16152853 110.102974,5.1596704 C109.141074,4.15848571 108.11991,3.45226888 107.042851,3.03877512 C105.965343,2.62483239 104.895242,2.41808551 103.837713,2.41808551 L103.059662,2.41808551 C102.287897,2.41808551 101.664289,2.46073687 101.194451,2.54940682 C100.725061,2.63448507 100.357361,2.80868222 100.101004,3.06840659 C99.8383617,3.327682 99.6677562,3.70189161 99.5788618,4.19440265 C99.4935591,4.68377095 99.447765,5.33386755 99.447765,6.14154973 L99.447765,21.2724584 L100.054986,21.2724584 C101.171778,21.2724584 102.179697,21.0293456 103.085926,20.5370591 C103.991931,20.0479153 104.786818,19.4204912 105.469913,18.6619704 C106.152784,17.9003068 106.720945,17.0632176 107.173948,16.1502539 C107.627399,15.233923 107.93606,14.3443053 108.113176,13.4739929 L109.469265,13.4739929 C109.370493,14.7840633 109.311679,15.8972639 109.282272,16.8131459 C109.249273,17.7261096 109.236253,18.5275063 109.236253,19.2204788 C109.236253,19.7226425 109.239396,20.1857465 109.249273,20.6091175 C109.262293,21.0327129 109.26566,21.4565327 109.26566,21.8801281 C109.26566,22.3596193 109.27217,22.8586403 109.282272,23.3641712 C109.291925,23.8762121 109.311679,24.4576175 109.338168,25.1110813 C109.367575,25.7676879 109.406859,26.5131889 109.452877,27.3505025 C109.502039,28.1880407 109.564444,29.1665528 109.643237,30.2826717 L108.287148,30.2826717 C108.113176,29.1829399 107.794637,28.1586337 107.331533,27.2093041 C106.868654,26.2539135 106.284105,25.426477 105.571603,24.7269946 C104.859101,24.0210022 104.041542,23.4692282 103.115558,23.0653872 C102.189574,22.6615461 101.171778,22.4545747 100.054986,22.4545747 L99.447765,22.4545747 L99.447765,36.0554218 C99.447765,37.266945 99.5362104,38.23558 99.7068159,38.9617756 C99.8812375,39.6805634 100.209429,40.24199 100.688695,40.6328112 C101.171778,41.0267752 101.841405,41.2829078 102.698472,41.3980665 C103.555765,41.515919 104.665149,41.5718147 106.034707,41.5718147 L106.034707,42.9276792 C105.361714,42.911741 104.576928,42.8917623 103.693372,42.8720079 C102.806897,42.8493354 101.841405,42.8327238 100.79061,42.8131939 C99.7431818,42.7968068 98.6299812,42.7770525 97.4579665,42.7705426 C96.2823602,42.7604409 95.0771224,42.753931 93.8460693,42.753931 C92.036529,42.753931 90.2238459,42.7770525 88.4048774,42.8131939 C86.5856845,42.8493354 84.8684058,42.8917623 83.2496742,42.9276792 L83.2496742,41.7460119 C84.1559035,41.703136 84.8812012,41.6212005 85.4298324,41.4833693 C85.9816064,41.3484563 86.4052018,41.1057924 86.713863,40.7477454 C87.0225242,40.3928412 87.2261284,39.8906775 87.3213083,39.2470908 C87.4162637,38.6035042 87.4656495,37.7435179 87.4656495,36.662867 L87.4656495,7.32389048 C87.4656495,6.24683126 87.4133454,5.38639608 87.3080639,4.74280942 C87.2030068,4.09585554 86.9960355,3.59683456 86.6873743,3.24215479 C86.3757948,2.88455676 85.9519749,2.64144397 85.400201,2.50338824 C84.8551614,2.36869971 84.1363737,2.28362146 83.2496742,2.24388835 L83.2496742,1.06199656 C84.9638102,1.0979135 86.8059002,1.1342794 88.7824543,1.16346191 C90.7524984,1.18680792 92.6866256,1.20970497 94.5846114,1.21935765 C96.4792299,1.22945929 98.2490371,1.2328265 99.8976246,1.2328265 L103.952647,1.2328265 L106.898061,1.2328265 C107.958733,1.2328265 109.029507,1.22945929 110.119361,1.21935765 C111.203155,1.20970497 112.27999,1.18680792 113.337294,1.16346191 C114.398191,1.1342794 115.389723,1.0979135 116.312339,1.06199656" id="Fill-6" fill="#80142E"></path>
                    <g id="Group-10" transform="translate(118.076939, 0.216175)">
                        <mask id="mask-4" fill="white">
                            <use xlink:href="#path-3"></use>
                        </mask>
                        <g id="Clip-9"></g>
                        <path d="M22.4915916,0.00828334418 C23.7821321,0.00828334418 24.9543712,0.11019766 26.0145944,0.323678969 C27.0721238,0.537160279 28.037616,0.822475467 28.9139893,1.17737973 C29.7939544,1.5320595 30.5919839,1.94241054 31.3112206,2.40237184 C32.0338245,2.86188419 32.7229808,3.34451806 33.3766691,3.84690626 C33.80004,4.19507609 34.1843513,4.36568155 34.5325211,4.36568155 C34.9363622,4.36568155 35.2647777,4.08014188 35.5144004,3.51534801 C35.7637987,2.9474114 35.9377713,2.05397753 36.0329512,0.845821478 L37.3890402,0.845821478 C37.349756,1.63374934 37.320349,2.50091895 37.2907176,3.43992243 C37.2610861,4.38543587 37.2348218,5.44588351 37.2184347,6.63159147 C37.1989049,7.81685048 37.1822933,9.14330795 37.1724161,10.6210655 C37.1659062,12.0920887 37.1596207,13.7635733 37.1596207,15.6254176 L35.8030828,15.6254176 C35.6652516,14.2033313 35.4948706,12.8968526 35.284532,11.7178791 C35.0710507,10.5321711 34.7657567,9.44568369 34.3616911,8.46717156 C33.9542584,7.48192502 33.4291976,6.59859279 32.7856109,5.79427782 C32.1420243,4.99939105 31.3276077,4.26713445 30.3457283,3.61703784 C29.5185163,3.07850823 28.641694,2.64840288 27.7190777,2.33323174 C26.7930941,2.01469338 25.8408462,1.85396507 24.8621096,1.85396507 C23.3583122,1.85396507 22.0316303,2.14264748 20.8890227,2.72068572 C19.7432723,3.29535675 18.7613929,4.08014188 17.9436091,5.07504111 C17.1262743,6.06657312 16.4496889,7.22556786 15.9080166,8.55561703 C15.3658953,9.87893177 14.9360144,11.2844065 14.6107416,12.768674 C14.2825506,14.2529416 14.0560494,15.7695343 13.9310135,17.3294519 C13.8064267,18.889145 13.7437965,20.4126967 13.7437965,21.8969642 C13.7437965,23.37764 13.8064267,24.8949063 13.9310135,26.4579666 C14.0560494,28.0142925 14.2825506,29.5380686 14.6107416,31.0189689 C14.9360144,32.503012 15.3658953,33.9051195 15.9080166,35.2351687 C16.4496889,36.5614017 17.1262743,37.7271308 17.9436091,38.7123774 C18.7613929,39.7075011 19.7396806,40.4886945 20.8760028,41.0667328 C22.0087332,41.6476893 23.3385579,41.9336779 24.8621096,41.9336779 C25.8408462,41.9336779 26.7930941,41.7758678 27.7190777,41.457554 C28.641694,41.1392401 29.5185163,40.712053 30.3457283,40.1703806 C31.3276077,39.5759553 32.1420243,38.8764729 32.7856109,38.0622808 C33.4291976,37.2545986 33.9542584,36.328615 34.3616911,35.2775956 C34.7657567,34.2270251 35.0710507,33.0514187 35.284532,31.7382056 C35.4948706,30.4310535 35.6652516,28.9667648 35.8030828,27.351176 L37.1596207,27.351176 C37.1596207,29.2949558 37.1659062,31.0319888 37.1724161,32.5622749 C37.1822933,34.092561 37.1989049,35.4746898 37.2184347,36.7061918 C37.2348218,37.9374694 37.2610861,39.0441601 37.2907176,40.025815 C37.320349,41.0076943 37.349756,41.9040464 37.3890402,42.7115041 L36.0329512,42.7115041 C35.9377713,41.5002053 35.7801858,40.6168731 35.5568273,40.055222 C35.3370605,39.4971625 35.015155,39.2181328 34.5915596,39.2181328 C34.2828984,39.2181328 33.8756901,39.3822283 33.3766691,39.7075011 C32.6477797,40.2296436 31.9058704,40.7187874 31.153635,41.1818914 C30.4016241,41.6476893 29.5941664,42.0486121 28.7301395,42.3965574 C27.8600517,42.7411356 26.9109465,43.023757 25.8834976,43.2305039 C24.8555997,43.4439852 23.7028904,43.5492667 22.4356959,43.5492667 C19.083074,43.5492667 16.0424806,43.0664084 13.3071812,42.107875 C10.5750245,41.1421583 8.23391349,39.7501524 6.27711373,37.9179396 C4.32300774,36.0888694 2.81606764,33.8494482 1.74529388,31.1895744 C0.674969086,28.5330678 0.1431739,25.5122287 0.1431739,22.1236899 C0.1431739,18.813495 0.691805151,15.802533 1.78794525,13.0869879 C2.88498327,10.3750345 4.41841211,8.04986162 6.39541515,6.11595891 C8.36882649,4.17532177 10.7198147,2.67803436 13.4551141,1.61085229 C16.1870463,0.540527492 19.201151,0.00828334418 22.4915916,0.00828334418" id="Fill-8" fill="#80142E" mask="url(#mask-4)"></path>
                    </g>
                </g>
            </g>
        </g>
    </g>
</svg>